<svg width="65" height="50" viewBox="40 15 55 95" fill="none" xmlns="http://www.w3.org/2000/svg">
	<path d="M37.9042 44.7292C37.9042 44.7292 46.4779 45.7146 47.7698 45.8241C52.3502 46.3715 54.1119 48.5613 55.5213 52.1745C56.9307 55.7876 61.6286 67.8315 61.6286 67.8315L63.2728 67.6125C70.0848 66.7366 72.7861 67.2841 74.7827 68.4884L65.3869 48.1234C62.4507 41.7729 58.6924 40.4591 50.706 38.9262C48.9443 38.5977 44.4813 37.7218 41.6625 37.2839C38.8438 36.7364 36.6123 38.3788 36.6123 40.5686C36.4948 40.1306 35.2029 36.0795 35.2029 36.0795L20.0522 33.2327L28.5084 71.6636L45.6557 69.5833L37.9042 44.7292ZM104.614 56.1161C104.614 56.1161 103.792 54.9117 103.557 54.5832C102.853 53.3789 101.326 52.3934 99.0943 52.1745C97.2152 51.9555 75.9572 49.7657 75.9572 49.7657L78.8934 55.4592L104.614 56.1161ZM85.5879 68.2695L109.9 64.1088L107.316 60.2767L82.2993 62.0285L85.5879 68.2695ZM77.8363 75.1673C76.0746 71.3352 71.7291 70.6782 65.152 71.7731C58.5749 72.868 29.8003 77.7951 29.8003 77.7951L32.2667 89.182L68.2056 79.4374C75.2525 77.4666 78.8934 77.3571 79.7155 79.2184C81.4772 83.1601 86.5275 83.379 92.2824 81.0798C96.8628 79.1089 114.95 71.6636 114.95 71.6636L112.131 67.3935L78.541 76.5907C78.541 76.7002 78.3061 76.1527 77.8363 75.1673ZM88.759 89.8389C82.0645 93.3426 76.5444 93.1236 74.6653 88.744C73.4908 86.0068 69.9674 86.3353 63.6252 88.6346C58.9273 90.2769 29.2131 101.226 25.5722 102.43C21.8139 103.635 18.173 102.102 17.5858 98.4886C17.2334 94.9849 8.07252 31.3714 8.07252 31.3714C7.48528 27.5393 10.5389 24.9115 14.5321 25.8969L54.8166 35.313C61.2762 36.8459 65.8567 40.3496 67.3835 43.6343C67.3835 43.6343 94.6313 48.1233 98.1548 48.7803C103.088 49.6562 105.437 51.7365 107.198 54.3643C108.373 56.0066 120 73.087 120 73.087C120 73.087 94.7488 86.6637 88.759 89.8389Z" fill="black">
	</path>
	<path d="M120 78.8183C120 79.916 119.11 80.721 118.071 80.721C117.033 80.721 116.143 79.8428 116.143 78.8183C116.143 77.7938 117.033 76.9156 118.071 76.9156C119.11 76.9156 120 77.7938 120 78.8183ZM119.703 78.8183C119.703 77.8669 119.036 77.1351 118.071 77.1351C117.107 77.1351 116.44 77.8669 116.44 78.8183C116.44 79.7696 117.107 80.5015 118.071 80.5015C119.036 80.5015 119.703 79.7696 119.703 78.8183ZM117.626 79.9892H117.33V77.6474H118.22C118.739 77.6474 118.962 77.8669 118.962 78.306C118.962 78.7451 118.665 78.8915 118.442 78.9647L119.11 79.9892H118.739L118.071 78.9647H117.626V79.9892ZM117.997 78.6719C118.294 78.6719 118.665 78.6719 118.665 78.306C118.665 78.0133 118.368 77.9401 118.146 77.9401H117.626V78.6719H117.997Z" fill="black">
	</path>
</svg>
